PathFileType	4	(X/Y/Z)	Patient4_TMGait_0pt5_01_left_07.trc.trc
DataRate	CameraRate	NumFrames	NumMarkers	Units	OrigDataRate	OrigDataStartFrame	OrigNumFrames
73.684210526316	73.684210526316	4	33	mm	73.684210526316	18	       141
Frame#	Time	L.ASIS			Sacral			L.Shoulder			Chest			R.Shoulder			Neck			R.ASIS			R.Thigh.Superior			R.Thigh.Lateral			R.Thigh.Inferior			R.Patella			L.Thigh.Superior			L.Thigh.Lateral			L.Thigh.Inferior			L.Patella			L.Shank.Superior			L.Shank.Lateral			L.Shank.Inferior			R.Shank.Superior			R.Shank.Lateral			R.Shank.Inferior			R.Heel			R.Midfoot.Superior			R.Midfoot.Lateral			R.Toe			L.Heel			L.Midfoot.Lateral			L.Midfoot.Superior			L.Toe			L.Elbow			L.Wrist			R.Elbow			R.Wrist			
		X1	Y1	Z1	X2	Y2	Z2	X3	Y3	Z3	X4	Y4	Z4	X5	Y5	Z5	X6	Y6	Z6	X7	Y7	Z7	X8	Y8	Z8	X9	Y9	Z9	X10	Y10	Z10	X11	Y11	Z11	X12	Y12	Z12	X13	Y13	Z13	X14	Y14	Z14	X15	Y15	Z15	X16	Y16	Z16	X17	Y17	Z17	X18	Y18	Z18	X19	Y19	Z19	X20	Y20	Z20	X21	Y21	Z21	X22	Y22	Z22	X23	Y23	Z23	X24	Y24	Z24	X25	Y25	Z25	X26	Y26	Z26	X27	Y27	Z27	X28	Y28	Z28	X29	Y29	Z29	X30	Y30	Z30	X31	Y31	Z31	X32	Y32	Z32	X33	Y33	Z33	

18	9.640714285714	653.417829333089	958.085411771296	361.123193319182	463.513512995782	1005.144230545214	545.793084909299	619.880782831840	1438.221180866291	364.492942911417	743.395060016831	1355.062543598786	503.589658191227	689.238390842013	1421.781549353010	692.521923835189	646.273326703020	1490.150309198247	516.663214473326	698.555971086982	932.167581566349	632.639371516304	694.835390318080	722.356885325269	601.062571694703	594.197503776633	627.434977528001	665.035340311650	651.015811232355	563.264404222527	581.157561867404	630.241336756557	476.476593847108	583.496100246349	727.995323292650	773.469542789525	381.694090711236	671.428204625887	642.631094717183	312.623955697306	778.536631288972	584.063676509676	367.456271402923	807.065115876180	523.380055190345	366.362802076309	797.632921307631	454.155421927693	358.019863534960	746.128134266744	317.438265400577	308.867736582418	846.072398356193	229.662860069022	361.513367083412	589.037011237096	393.482677026831	589.100368472591	504.098255104803	301.547271661132	651.692577625033	525.449227089456	203.380115073752	583.695879593061	365.305319291146	51.197919132551	554.975929624842	541.051190864962	97.163662224454	585.069175725796	451.416264967019	37.743244805309	624.233576322507	659.021877933164	37.766240921036	605.052891060493	782.768639807607	42.052133297796	403.104636804182	855.783845518871	52.052692030092	322.510937920091	917.945782582169	137.191362115482	339.430830210245	1053.885134571277	121.437935202719	314.879868276932	475.300765961397	1113.262522338242	264.134134379644	472.136079225616	850.635529450412	270.298151703310	815.185588512310	1107.998524955009	801.746694985551	1063.233489438741	1134.629420696288	751.507801079360	
19	9.654285714286	655.110814842524	957.196783684093	359.740072315793	464.471948470728	1004.367005895893	543.581386028226	620.619745745759	1437.551532883520	363.078116666869	743.835932500240	1354.420161276784	502.439792721549	689.068084867517	1420.758957973286	691.295456832011	646.511994296913	1489.377872491268	515.391434571273	699.066705898360	931.313733845230	631.554587011781	693.843509565339	721.239462508749	600.263037720105	592.166787984324	627.180704813259	664.160776912885	648.638490787324	562.354838872194	580.580857380510	626.973306615560	475.638014221454	582.867538471110	729.853175937807	772.757714686378	380.796036627256	673.003027867825	641.338588323884	312.490309185626	780.141459884056	583.174034165734	367.056285542768	808.290019429549	522.030420442067	366.545837741882	798.465300351702	452.287726826738	358.711349725253	745.838160224711	315.943044610938	310.130506814035	844.769320890073	227.582083310950	363.276553415134	585.114280720506	393.019599881240	588.673451573907	499.277424728893	301.960377796688	651.416121825929	519.818890721291	203.452598700164	583.638694187201	358.623165883080	52.121862055545	555.168751528800	534.514359492821	97.317408026644	585.239170998681	444.660848483744	38.102636466321	624.354815103534	652.200983194052	37.611324102569	605.070437759257	779.263814269117	41.685071006145	405.136295339018	852.616448513895	50.313206068452	324.787621937047	916.183288570391	134.030347350241	341.947689019870	1051.730148952205	115.661859753813	317.848607246495	477.201587512048	1112.380748857621	261.605464046843	477.546897767981	849.646903623847	267.432246079022	814.777621565420	1106.254152417371	799.231646115699	1063.378320664830	1128.603872649800	747.770036529845	
20	9.667857142857	657.165584027917	956.249560082032	358.195924871783	465.641657803186	1003.578243330452	541.070372996403	621.531156992179	1436.842748910581	361.420256269608	744.420827342857	1353.796104588978	501.113576928965	688.922661471385	1419.776749518047	689.855952974453	646.847616503515	1488.592258053779	513.870469393699	699.745309080754	930.430104512751	630.322153048249	693.075974618022	720.077103469258	599.492147307368	590.282059656313	626.928967111528	663.217299551105	646.478067876700	561.402458617297	580.003880407735	623.904986558267	474.751131646427	582.242514801190	732.006739420562	771.957460284132	380.084086004135	675.100617447429	640.070983073563	312.361643749454	781.936878227580	582.209998780454	367.119121268574	809.525257293578	520.330129504475	367.158715133222	799.140040295891	449.959836907249	359.694752852761	744.863138328628	314.218948829579	311.563784891898	842.223602490384	224.820495760193	365.475758301649	581.347718592617	392.540649231633	588.248815678963	494.542409553292	302.432849532000	651.134713525499	514.253712585591	203.558287464195	583.610838219869	351.960882764017	53.142823813822	555.387208974713	528.010213834939	97.498853764829	585.439398062637	437.915998068367	38.499174961755	624.495670656095	645.380699984160	37.447285256089	605.098963166939	773.483906272232	41.012866893834	407.173755852881	847.434392590902	48.106184065114	327.287792886735	912.776648290162	129.950307385069	345.148804929213	1047.884744561515	108.273842876951	321.805111918763	479.374878351420	1111.437980215457	258.758985159086	483.644155295815	848.658054256851	264.162611018121	813.890298124316	1104.521321891604	797.141607902031	1063.118905217297	1121.700039282791	744.725121198310	
21	9.681428571429	659.581373686182	955.239132622688	356.498490004095	467.017585524361	1002.779141854072	538.254507606311	622.645935580645	1436.089697442296	359.516468885736	745.167086288205	1353.183024837156	499.616133188529	688.815904705031	1418.840855172732	688.201894034111	647.305362329516	1487.793235007131	512.097130791968	700.588153728656	929.506592467810	628.933939229913	692.555101174519	718.867247651551	598.734309063603	588.572729395279	626.663685480300	662.172527394706	644.579229784155	560.399383999811	579.398597308017	621.098093765325	473.783300589176	581.595092626034	734.400772425995	770.999670216384	379.556433676540	677.554293795860	638.807588231605	312.217011292308	783.766754027919	581.107940537842	367.616982474534	810.594500434805	518.298741970180	368.186475049973	799.589546023506	447.272270818091	360.901370873689	743.374796859516	312.285798566841	313.077380749268	838.771976321993	221.565709232268	367.991360962988	577.773448778761	392.022003176372	587.791848493171	489.923276903372	302.955988945518	650.814579498695	508.771141972141	203.684736065776	583.585422602648	345.318099782640	54.258892940254	555.617590079875	521.541335179949	97.705181813524	585.655270789525	431.182447317541	38.938798950379	624.647340954143	638.564231955330	37.277523007995	605.139036973747	766.082540840967	40.122851770779	409.096095344963	840.860843894725	45.633183881047	329.875456542981	908.207887464268	125.244462284282	348.896537027355	1042.842138620732	99.785179824856	326.594573371783	481.844247042573	1110.433221362961	255.593642338879	490.380725119132	847.679453312334	260.532871459249	812.574322581643	1102.803608363070	795.457572241576	1062.455276815640	1113.881872167386	742.465372462251	
